<?xml version="1.0" encoding="UTF-8" standalone="no"?>
<svg
   xmlns:dc="http://purl.org/dc/elements/1.1/"
   xmlns:cc="http://creativecommons.org/ns#"
   xmlns:rdf="http://www.w3.org/1999/02/22-rdf-syntax-ns#"
   xmlns:svg="http://www.w3.org/2000/svg"
   xmlns="http://www.w3.org/2000/svg"
   width="210mm"
   height="297mm"
   viewBox="0 0 210 297"
   version="1.1"
   id="svg1074">
  <defs
     id="defs1068" />
  <metadata
     id="metadata1071">
    <rdf:RDF>
      <cc:Work
         rdf:about="">
        <dc:format>image/svg+xml</dc:format>
        <dc:type
           rdf:resource="http://purl.org/dc/dcmitype/StillImage" />
        <dc:title></dc:title>
      </cc:Work>
    </rdf:RDF>
  </metadata>
  <g
     id="layer1">
    <g
       id="g1047"
       transform="matrix(0.52930714,0,0,0.52930714,27.493603,-255.57272)">
      <path
         id="path30940"
         transform="scale(0.26458333)"
         d="m 332.98633,1965.1172 v 34.8535 c -54.17463,4.4456 -106.66933,28.4415 -145.13281,66.9063 -16.32652,16.327 -30.03738,35.1873 -40.76368,55.625 0.40628,-21.5801 -2.22662,-42.1133 -8.08789,-62.6895 -16.73639,-60.7359 -78.259223,-89.4285 -135.8574188,-90.0293 -19.2080332,-0.2003 -38.4848232,2.5707 -56.6933592,8.5039 a 25.176385,25.176385 0 0 0 -0.01367,0 c -37.382997,12.2067 -67.670222,30.9863 -87.742192,56.5606 -19.79888,25.2262 -28.26499,57.5428 -22.71289,90.2207 1.57169,12.4827 11.98096,24.4754 23.15625,28.6933 11.37471,4.2932 22.71047,3.7808 35.35938,1.0703 a 25.176385,25.176385 0 0 0 0,-0.01 l 48.42578,-10.3789 a 25.176385,25.176385 0 0 0 0.06641,-0.016 c 7.584847,-1.6488 12.127368,-1.166 22.027344,-6.4218 4.949988,-2.6279 11.650846,-8.9375 14.378906,-15.9375 2.728061,-7.0001 2.332909,-12.2786 2.015625,-16.086 l 0.02148,0.2285 c -0.575173,-7.7649 2.174846,-11.809 9.9746091,-14.2089 a 25.176385,25.176385 0 0 0 0.3613281,-0.1114 c 3.138189,-1.0178 3.9234713,-0.9918 5.6699219,-1.3203 0.1916372,0.5326 0.2153296,0.4831 0.4199219,1.0918 10.1167039,38.1457 -2.1289499,94.9095 -51.222656,185.6992 a 25.176385,25.176385 0 0 0 -0.04492,0.08 l -10.378906,19.3711 a 25.176385,25.176385 0 0 0 -0.146485,0.2793 c -27.183239,52.2754 -45.707699,91.2672 -58.162109,127.1543 -0.003,0.01 -0.005,0.014 -0.008,0.021 -9.65625,27.6736 -6.09397,57.3147 12.97657,74.9922 19.075703,17.6822 46.324004,20.25 73.361328,13.8125 a 25.176385,25.176385 0 0 0 1.837891,-0.5098 c 27.3325866,-8.7464 95.529049,-14.0435 141.445311,-14.7187 h -0.36914 c 8.8592,0 17.04071,-0.2665 26.73047,-4.0977 4.84488,-1.9156 10.52285,-5.0074 15.29492,-11.1172 4.77207,-6.1097 7.2334,-15.2959 6.56836,-22.6113 l 0.0449,0.5097 -3.46094,-49.1269 a 25.176385,25.176385 0 0 0 -0.0664,-0.7305 c -0.81766,-8.1766 -5.40294,-15.885 -10.26172,-20.3886 -4.85879,-4.5037 -9.69466,-6.7239 -14.10743,-8.2813 -8.82553,-3.1148 -16.79983,-3.6836 -24.89062,-3.6836 -17.122931,0 -31.931887,0.6407 -49.119138,1.1211 l 23.820313,-46.875 a 25.176385,25.176385 0 0 0 0.07422,-0.1484 c 17.526789,-35.0536 31.874905,-63.8621 42.710935,-90.7696 2.90708,56.5781 27.29252,111.8902 67.375,151.9727 38.4633,38.4633 90.95228,62.4623 145.125,66.9082 v 48.5879 h 44 v -49.336 c 51.48993,-5.9575 100.93118,-29.478 137.61328,-66.1601 42.77038,-42.7704 67.66973,-102.8807 67.66992,-163.3672 7.7e-4,-25.2333 -4.34505,-50.3975 -12.5,-74.2695 8.79762,1.7082 17.75587,0.934 27.49219,-1.1524 l 48.43164,-10.3789 a 25.176385,25.176385 0 0 0 0.0664,-0.022 c 7.58486,-1.6488 12.12736,-1.166 22.02734,-6.4218 4.94997,-2.6279 11.6528,-8.9375 14.38086,-15.9375 2.72806,-7.0001 2.33288,-12.2786 2.01562,-16.086 l 0.0215,0.2285 c -0.57566,-7.7715 2.16692,-11.8096 9.96484,-14.2089 a 25.176385,25.176385 0 0 0 0.36328,-0.1114 c 3.13818,-1.0178 3.92153,-0.9918 5.66797,-1.3203 0.19162,0.5326 0.21725,0.4831 0.42188,1.0918 10.11738,38.1479 -2.12361,94.9104 -51.2168,185.6992 a 25.176385,25.176385 0 0 0 -0.043,0.08 l -10.3789,19.3711 a 25.176385,25.176385 0 0 0 -0.14844,0.2793 c -27.18236,52.2738 -45.71445,91.2641 -58.16992,127.1543 -0.003,0.01 -0.003,0.014 -0.006,0.021 -9.65666,27.6748 -6.08784,57.324 12.98437,75 19.07739,17.6807 46.32369,20.2422 73.36133,13.8047 a 25.176385,25.176385 0 0 0 1.83789,-0.5098 c 27.3326,-8.7464 95.52701,-14.0435 141.44336,-14.7187 h -0.36914 c 8.85917,0 17.0407,-0.2665 26.73047,-4.0977 4.8449,-1.9156 10.52285,-5.0074 15.29492,-11.1172 4.77203,-6.1097 7.23532,-15.2959 6.57031,-22.6113 l 0.0449,0.5097 -3.46289,-49.1269 a 25.176385,25.176385 0 0 0 -0.0664,-0.7305 c -0.81767,-8.1766 -5.401,-15.885 -10.25977,-20.3886 -4.85881,-4.5037 -9.69467,-6.7239 -14.10742,-8.2813 -8.82554,-3.1148 -16.80182,-3.6836 -24.89258,-3.6836 -17.12296,0 -31.93193,0.6407 -49.11914,1.1211 l 23.82227,-46.875 a 25.176385,25.176385 0 0 0 0.0742,-0.1484 c 22.97657,-45.953 40.13871,-81.1471 51.41406,-115.4082 -1.56291,17.0785 -2.5918,34.78 -2.5918,53.6445 0,65.8583 15.22452,129.3521 53.46094,177.4687 38.22931,48.1078 99.82492,78.1332 181.52733,77.3985 60.837,-0.4051 111.4426,-31.143 143.084,-78.8985 31.6341,-47.7444 46.2997,-111.4352 44.4824,-182.7597 v -0.029 c -1.432,-63.2686 -10.1435,-125.9921 -37.8906,-177.9922 -27.7356,-51.9787 -76.9075,-91.8348 -148.6719,-102.9414 -7.9566,-1.2981 -15.8825,-2.1713 -23.7539,-2.5899 -59.25157,-3.1508 -115.28912,20.8085 -153.30077,70.5704 -16.14051,21.1299 -28.98788,46.7623 -38.67383,76.3652 0.90985,-23.3108 -1.57548,-45.367 -7.86133,-67.4336 -16.73707,-60.7383 -78.26505,-89.4285 -135.86328,-90.0293 -19.20801,-0.2003 -38.4848,2.5707 -56.69336,8.5039 a 25.176385,25.176385 0 0 0 -0.0137,0 c -37.38327,12.2068 -67.6721,30.9858 -87.74219,56.5606 -13.4438,17.131 -21.65233,37.5327 -23.80273,59.0957 -6.96373,-9.6018 -14.65709,-18.6725 -23.05078,-27.0664 -36.68269,-36.684 -86.12649,-60.2013 -137.61914,-66.1582 v -35.6016 z m 714.85937,172.0664 c 1.0413,0 2.1327,0.048 3.2832,0.1387 a 25.176385,25.176385 0 0 0 0.8281,0.053 c 10.5135,0.4779 21.7244,8.8559 32.5528,31.5938 10.8158,22.7113 18.2309,56.7527 19.5332,93.455 0.9396,36.2149 -5.5326,66.3914 -15.6055,85.1348 -10.0753,18.7479 -20.3691,25.6964 -35.6543,25.918 -19.1227,0.239 -30.8944,-7.2564 -41.7148,-24.8555 -10.8205,-17.5991 -17.82884,-46.0559 -17.20121,-80.2617 a 25.176385,25.176385 0 0 0 0,-0.2227 c 0.32114,-32.757 6.121,-70.5761 17.29691,-96.3398 5.5879,-12.8819 12.3942,-22.4451 18.875,-27.7852 5.6707,-4.6725 10.5175,-6.8435 17.8066,-6.8281 z"
         style="opacity:1;fill:#000000;fill-opacity:1;stroke:none;stroke-width:1.05882347" />
      <path
         d="m 280.83035,531.21864 c -30.2035,-4.94239 -54.7324,17.02379 -54.7324,69.55957 0,32.76623 15.37633,61.13921 55.46461,60.77311 28.00688,-0.18305 43.93237,-26.72552 43.01711,-62.42057 -0.73221,-32.40012 -9.33563,-62.60362 -43.74932,-67.91211 z m -24.5289,68.82737 c 0.18305,-18.67126 6.0407,-42.46795 22.33229,-41.18659 12.0814,0.54915 19.40346,18.67125 20.13566,39.53912 0.54916,20.86788 -6.95595,36.06115 -20.13566,36.24421 -14.64413,0.18305 -22.69839,-14.64413 -22.33229,-34.59674 z m -35.78656,51.43748 -0.91526,-12.99666 c -0.18305,-1.83052 -3.11188,-2.56272 -6.4068,-2.56272 -8.23733,0 -18.30519,0.3661 -23.97978,0.54915 l 11.34919,-22.33228 c 7.13904,-14.27802 12.08143,-24.34586 14.64415,-34.04759 3.66103,-13.36276 4.02714,-23.06449 1.09831,-33.31537 -4.57629,-16.65769 -26.1764,-22.33229 -42.46798,-17.0238 -17.93905,5.85765 -27.27468,17.57295 -24.71196,31.66792 0.18305,1.83051 2.37967,3.29492 7.50511,2.19662 l 12.81361,-2.74578 c 4.21019,-0.91525 5.12544,-0.91525 4.94239,-3.11187 -0.3661,-4.94239 2.56272,-9.15258 7.32206,-10.61699 6.77291,-2.19662 8.23732,-1.28136 10.06784,4.39324 3.47798,12.8136 -0.73221,29.47129 -14.09497,54.18325 l -2.74577,5.12544 c -7.13901,13.72886 -11.89835,23.7967 -15.01023,32.76622 -4.02713,11.53225 3.47798,17.57295 15.01023,14.82717 9.15257,-2.92882 26.90858,-4.02713 39.35611,-4.21018 3.84408,0 6.4068,-0.73221 6.22375,-2.74577 z m -185.940713,0 -0.915258,-12.99666 c -0.183051,-1.83052 -3.111876,-2.56272 -6.406803,-2.56272 -8.237318,0 -18.305152,0.3661 -23.979749,0.54915 l 11.349194,-22.33228 c 7.139009,-14.27802 12.081401,-24.34586 14.644122,-34.04759 3.66103,-13.36276 4.027133,-23.06449 1.098309,-33.31537 -4.576288,-16.65769 -26.176368,-22.33229 -42.46795,-17.0238 -17.93905,5.85765 -27.27468,17.57295 -24.71196,31.66792 0.18305,1.83051 2.37967,3.29492 7.50511,2.19662 l 12.81361,-2.74578 c 4.21019,-0.91525 5.12544,-0.91525 4.94239,-3.11187 -0.3661,-4.94239 2.56272,-9.15258 7.32206,-10.61699 6.772909,-2.19662 8.237321,-1.28136 10.067836,4.39324 3.477979,12.8136 -0.732206,29.47129 -14.094966,54.18325 l -2.74577,5.12544 c -7.13901,13.72886 -11.89835,23.7967 -15.01023,32.76622 -4.02713,11.53225 3.47798,17.57295 15.01023,14.82717 9.15257,-2.92882 26.90857,-4.02713 39.356073,-4.21018 3.844082,0 6.406803,-0.73221 6.223752,-2.74577 z"
         style="font-style:normal;font-variant:normal;font-weight:500;font-stretch:normal;font-size:201.35667419px;line-height:1.25;font-family:'SS Jane Magnolia';-inkscape-font-specification:'SS Jane Magnolia, Medium';font-variant-ligatures:normal;font-variant-caps:normal;font-variant-numeric:normal;font-feature-settings:normal;text-align:start;letter-spacing:0px;word-spacing:0px;writing-mode:lr-tb;text-anchor:start;fill:#800080;fill-opacity:1;stroke:none;stroke-width:5.03391695"
         id="path26516" />
      <g
         id="g1034">
        <path
           style="opacity:0.878;fill:#ffaacc;fill-opacity:1;stroke:none;stroke-width:0.27760738"
           d="m 93.28733,535.5493 a 55.252533,55.252533 0 0 0 -2.278241,0.0804 l -17.20178,29.31656 h 36.834911 l -16.87968,-29.3734 a 55.252533,55.252533 0 0 0 -0.47521,-0.0235 z m 17.35489,29.39694 -18.417454,30.81389 35.772344,-0.35384 z m 17.35489,30.46005 13.24545,22.75475 a 55.252533,55.252533 0 0 0 7.0498,-22.41116 z m -35.772344,0.35384 -18.063096,31.52261 36.83491,0.70818 z m 18.771814,32.23079 6.67803,12.35444 a 55.252533,55.252533 0 0 0 16.0752,-12.01952 z m -36.83491,-0.70818 -6.531576,12.40972 a 55.252533,55.252533 0 0 0 16.706597,5.56682 z M 73.807309,564.94624 62.652168,544.8676 a 55.252533,55.252533 0 0 0 -17.646775,19.10774 z m -18.063096,31.16823 -17.35489,0.35437 c 0,0 -10e-4,0.0117 -10e-4,0.0118 a 55.252533,55.252533 0 0 0 6.117303,20.18467 z"
           id="circle30923" />
        <path
           style="opacity:0.878;fill:#2affd5;fill-opacity:1;stroke:none;stroke-width:0.27760738"
           d="m 91.009089,535.62968 a 55.252533,55.252533 0 0 0 -28.356921,9.23792 l 11.155141,20.07864 z m -17.20178,29.31656 -18.063096,31.16823 36.126706,-0.35434 z M 55.744213,596.11447 41.33327,572.19832 a 55.252533,55.252533 0 0 0 -3.298306,18.60335 55.252533,55.252533 0 0 0 0.347702,5.63133 c 0.0024,0.0119 0.0042,0.0239 0.0067,0.0358 z m 66.327627,-52.39442 -11.42962,21.22619 30.66742,-1.33292 a 55.252533,55.252533 0 0 0 -19.2378,-19.89327 z m 21.79564,25.01046 -15.87037,26.67578 20.29525,0.34359 a 55.252533,55.252533 0 0 0 0.24785,-4.94821 55.252533,55.252533 0 0 0 -4.67273,-22.07116 z"
           id="circle30925" />
        <path
           style="fill:none;stroke:none;stroke-width:0.26218474px;stroke-linecap:butt;stroke-linejoin:miter;stroke-opacity:1"
           d="M 55.744048,596.11453 91.870704,595.76037 74.16156,627.28266 55.744048,596.11453 74.16156,627.28266 92.224889,595.76037 Z"
           id="path28729" />
        <path
           style="fill:none;stroke:none;stroke-width:0.26218474px;stroke-linecap:butt;stroke-linejoin:miter;stroke-opacity:1"
           d="m 110.6424,564.94645 17.35496,30.45973"
           id="path28743" />
        <path
           style="fill:#ffffff;stroke:none;stroke-width:0.26218474px;stroke-linecap:butt;stroke-linejoin:miter;stroke-opacity:1"
           d="m 45.005393,563.97534 a 55.252533,55.252533 0 0 0 -3.672123,8.22298 l 14.410943,23.91615 18.063096,-31.16823 z m 82.991717,31.43095 -17.00053,32.58463 22.75323,0.33492 a 55.252533,55.252533 0 0 0 7.49275,-10.1648 z m -53.83544,31.87645 -21.71781,0.63855 a 55.252533,55.252533 0 0 0 15.186234,11.77117 z"
           id="path30895" />
        <path
           style="fill:#800080;stroke:none;stroke-width:0.26218474px;stroke-linecap:butt;stroke-linejoin:miter;stroke-opacity:1"
           d="m 93.76254,535.57284 16.87968,29.3734 11.42962,-21.22619 a 55.252533,55.252533 0 0 0 -28.3093,-8.14721 z m 16.87968,29.3734 H 73.807309 l 18.417457,30.81389 z m -18.417454,30.81389 18.771814,32.23079 17.00053,-32.58463 z m 18.771814,32.23079 -36.83491,-0.70818 10.175021,17.97654 a 55.252533,55.252533 0 0 0 8.950639,0.79526 55.252533,55.252533 0 0 0 7.68222,-0.59658 z m -36.83491,-0.70818 -18.417457,-31.16827 -11.23861,20.55081 a 55.252533,55.252533 0 0 0 7.938257,11.25601 z"
           id="path30913" />
        <path
           style="fill:#00ffcc;stroke:none;stroke-width:0.26218474px;stroke-linecap:butt;stroke-linejoin:miter;stroke-opacity:1"
           d="m 141.30964,563.61332 -30.66742,1.33292 17.35489,30.46005 15.87037,-26.67578 a 55.252533,55.252533 0 0 0 -2.55784,-5.11719 z m -49.438721,32.14681 -36.126706,0.35434 18.417457,31.16827 z m 19.125661,32.23079 -10.02703,17.46704 a 55.252533,55.252533 0 0 0 16.70506,-5.1126 z"
           id="path30934" />
      </g>
    </g>
  </g>
</svg>
